<svg width="122" height="40" viewBox="0 0 122 40" fill="none" xmlns="http://www.w3.org/2000/svg">
<g clip-path="url(#clip0_654_646)">
<path d="M92 31.6665C92.6566 31.6665 93.3068 31.3647 93.9134 30.7784C94.52 30.1921 95.0712 29.3328 95.5355 28.2494C95.9998 27.1661 96.3681 25.8799 96.6194 24.4645C96.8707 23.049 97 21.5319 97 19.9998C97 18.4677 96.8707 16.9507 96.6194 15.5352C96.3681 14.1197 95.9998 12.8336 95.5355 11.7503C95.0712 10.6669 94.52 9.80755 93.9134 9.22124C93.3068 8.63494 92.6566 8.33317 92 8.33317C91.3434 8.33317 90.6932 8.63494 90.0866 9.22124C89.48 9.80755 88.9288 10.6669 88.4645 11.7503C88.0002 12.8336 87.6319 14.1197 87.3806 15.5352C87.1293 16.9507 87 18.4677 87 19.9998C87 21.5319 87.1293 23.049 87.3806 24.4645C87.6319 25.8799 88.0002 27.1661 88.4645 28.2494C88.9288 29.3328 89.48 30.1921 90.0866 30.7784C90.6932 31.3647 91.3434 31.6665 92 31.6665Z" stroke="#FF0000" stroke-width="4" stroke-linecap="round" stroke-linejoin="round"/>
<path d="M92 31.6665H112C114.762 31.6665 117 26.4432 117 19.9998C117 13.5565 114.762 8.33317 112 8.33317H92" stroke="#FF0000" stroke-width="4" stroke-linecap="round" stroke-linejoin="round"/>
</g>
<g clip-path="url(#clip1_654_646)">
<path d="M52.5033 32.3715C56.84 35.8798 63.1617 35.8798 67.4967 32.3715C71.8333 28.8631 72.9333 22.8581 70.1067 18.1281L61.9567 6.02813C61.2567 4.98646 59.8117 4.6898 58.73 5.36646C58.4585 5.53684 58.2257 5.76224 58.0467 6.02813L49.8917 18.1281C47.0667 22.8581 48.1667 28.8631 52.5033 32.3715Z" stroke="#FF0000" stroke-width="4" stroke-linecap="round" stroke-linejoin="round"/>
</g>
<g clip-path="url(#clip2_654_646)">
<path d="M20 19.9998C23.3333 15.0665 20 8.33317 18.3333 6.6665C18.3333 11.7298 15.3783 14.5682 13.3333 16.6665C11.29 18.7665 10 22.0665 10 24.9998C10 27.652 11.0536 30.1955 12.9289 32.0709C14.8043 33.9463 17.3478 34.9998 20 34.9998C22.6522 34.9998 25.1957 33.9463 27.0711 32.0709C28.9464 30.1955 30 27.652 30 24.9998C30 22.4465 28.24 18.4332 26.6667 16.6665C23.69 21.6665 22.015 21.6665 20 19.9998Z" stroke="#FF0000" stroke-width="4" stroke-linecap="round" stroke-linejoin="round"/>
</g>
<defs>
<clipPath id="clip0_654_646">
<rect width="40" height="40" fill="white" transform="matrix(0 -1 1 0 82 40)"/>
</clipPath>
<clipPath id="clip1_654_646">
<rect width="40" height="40" fill="white" transform="translate(40)"/>
</clipPath>
<clipPath id="clip2_654_646">
<rect width="40" height="40" fill="white"/>
</clipPath>
</defs>
</svg>
