<svg width="769" height="40" viewBox="0 0 769 40" fill="none" xmlns="http://www.w3.org/2000/svg">
<g clip-path="url(#clip0_1016_626)">
<path d="M415 31.6665C415.657 31.6665 416.307 31.3647 416.913 30.7784C417.52 30.1921 418.071 29.3328 418.536 28.2494C419 27.1661 419.368 25.8799 419.619 24.4645C419.871 23.049 420 21.5319 420 19.9998C420 18.4677 419.871 16.9507 419.619 15.5352C419.368 14.1197 419 12.8336 418.536 11.7503C418.071 10.6669 417.52 9.80755 416.913 9.22124C416.307 8.63494 415.657 8.33317 415 8.33317C414.343 8.33317 413.693 8.63494 413.087 9.22124C412.48 9.80755 411.929 10.6669 411.464 11.7503C411 12.8336 410.632 14.1197 410.381 15.5352C410.129 16.9507 410 18.4677 410 19.9998C410 21.5319 410.129 23.049 410.381 24.4645C410.632 25.8799 411 27.1661 411.464 28.2494C411.929 29.3328 412.48 30.1921 413.087 30.7784C413.693 31.3647 414.343 31.6665 415 31.6665Z" stroke="#FF0000" stroke-width="4" stroke-linecap="round" stroke-linejoin="round"/>
<path d="M415 31.6665H435C437.762 31.6665 440 26.4432 440 19.9998C440 13.5565 437.762 8.33317 435 8.33317H415" stroke="#FF0000" stroke-width="4" stroke-linecap="round" stroke-linejoin="round"/>
</g>
<g clip-path="url(#clip1_1016_626)">
<path d="M375.503 32.3715C379.84 35.8798 386.162 35.8798 390.497 32.3715C394.833 28.8631 395.933 22.8581 393.107 18.1281L384.957 6.02813C384.257 4.98646 382.812 4.6898 381.73 5.36646C381.458 5.53684 381.226 5.76224 381.047 6.02813L372.892 18.1281C370.067 22.8581 371.167 28.8631 375.503 32.3715Z" stroke="#FF0000" stroke-width="4" stroke-linecap="round" stroke-linejoin="round"/>
</g>
<g clip-path="url(#clip2_1016_626)">
<path d="M343 19.9998C346.333 15.0665 343 8.33317 341.333 6.6665C341.333 11.7298 338.378 14.5682 336.333 16.6665C334.29 18.7665 333 22.0665 333 24.9998C333 27.652 334.054 30.1955 335.929 32.0709C337.804 33.9463 340.348 34.9998 343 34.9998C345.652 34.9998 348.196 33.9463 350.071 32.0709C351.946 30.1955 353 27.652 353 24.9998C353 22.4465 351.24 18.4332 349.667 16.6665C346.69 21.6665 345.015 21.6665 343 19.9998Z" stroke="#FF0000" stroke-width="4" stroke-linecap="round" stroke-linejoin="round"/>
</g>
<path d="M309.5 20H0M769 20H459.5" stroke="#FF0000" stroke-width="2"/>
<defs>
<clipPath id="clip0_1016_626">
<rect width="40" height="40" fill="white" transform="matrix(0 -1 1 0 405 40)"/>
</clipPath>
<clipPath id="clip1_1016_626">
<rect width="40" height="40" fill="white" transform="translate(363)"/>
</clipPath>
<clipPath id="clip2_1016_626">
<rect width="40" height="40" fill="white" transform="translate(323)"/>
</clipPath>
</defs>
</svg>
